# xmcd
#
# Track frame offsets:
#	150
#	12629
#	25498
#	41280
#	52628
#	65238
#	77235
#	90689
#	104923
#	119625
#	133295
#	147731
#	159798
#	170760
#	180439
#	191928
#	205514
#
# Disc length: 2893 seconds
#
# Revision: 0
# Processed by: cddbd v1.5.1PL0 Copyright (c) Steve Scherf et al.
# Submitted via: dBpowerAMP V4.0
#
DISCID=fd0b4b11
DTITLE=Método Marito - Terceiro Estágio CD1
DYEAR=2004
DGENRE=Country
TTITLE0=A viola e o voleiro
TTITLE1=Rei sem coroa
TTITLE2=Chega de sujeira
TTITLE3=A ferro e fogo
TTITLE4=Tudo é beleza
TTITLE5=Furacão
TTITLE6=Viúva rica
TTITLE7=Rei do pagode
TTITLE8=Pra tudo se dá jeito
TTITLE9=A coisa ficou bonita
TTITLE10=Mineirinho de fibra
TTITLE11=Na barba do leão
TTITLE12=Falou e disse
TTITLE13=Começo do fim
TTITLE14=Pagode do Pai tomé
TTITLE15=Pagode em Brasília
TTITLE16=Vacilou virou petisco
EXTD=
EXTT0=
EXTT1=
EXTT2=
EXTT3=
EXTT4=
EXTT5=
EXTT6=
EXTT7=
EXTT8=
EXTT9=
EXTT10=
EXTT11=
EXTT12=
EXTT13=
EXTT14=
EXTT15=
EXTT16=
PLAYORDER=
